<?xml version="1.0" encoding="UTF-8" standalone="no"?>
<!DOCTYPE svg PUBLIC "-//W3C//DTD SVG 1.1//EN" "http://www.w3.org/Graphics/SVG/1.1/DTD/svg11.dtd">
<svg width="100%" height="100%" viewBox="0 0 512 512" version="1.1" xmlns="http://www.w3.org/2000/svg" xmlns:xlink="http://www.w3.org/1999/xlink" xml:space="preserve" xmlns:serif="http://www.serif.com/" style="fill-rule:evenodd;clip-rule:evenodd;stroke-linecap:round;stroke-linejoin:round;">
    <g transform="matrix(2,0,0,2,0,0)">
        <g transform="matrix(4,0,0,4,0,0)">
            <g>
                <g transform="matrix(1,0,0,1,1.54074,5.22186)">
                    <circle cx="45" cy="17.67" r="13.5" style="fill:rgb(91,249,173);fill-opacity:0.5;"/>
                </g>
                <g>
                    <path d="M46.83,31.83C46.83,31.83 49.2,35.5 45.23,39.77C41.25,44.05 31.06,45.61 23.98,46.17C19.73,46.51 16.6,46.49 16.6,46.49L42.14,30.67C43.93,29.56 44.92,27.51 44.66,25.41C44.66,23.29 38.63,19.42 38.63,19.42L43.87,18.08C44.22,16.6 45.54,15.56 47.06,15.56L47.75,15.56C51.67,15.56 54.85,18.74 54.85,22.66C54.85,22.66 55.09,42.43 49.35,46.41C42.17,51.38 32.63,48.55 32.63,48.55C29.94,48.55 27.36,49.62 25.46,51.52L23.06,53.92C22.27,54.71 21.19,55.16 20.07,55.16L14.3,55.16L24.22,46.26" style="fill:none;fill-rule:nonzero;stroke:rgb(1,29,87);stroke-width:2px;"/>
                    <path d="M42.82,57.18L39.18,49.35" style="fill:none;fill-rule:nonzero;stroke:rgb(1,29,87);stroke-width:2px;"/>
                    <path d="M34.49,49.35L38.14,57.18" style="fill:none;fill-rule:nonzero;stroke:rgb(1,29,87);stroke-width:2px;"/>
                    <path d="M47.91,20.03L47.91,20.63" style="fill:none;fill-rule:nonzero;stroke:rgb(1,29,87);stroke-width:2px;"/>
                </g>
            </g>
        </g>
    </g>
</svg>
