<svg width="26" height="15" viewBox="0 0 26 15" fill="none" xmlns="http://www.w3.org/2000/svg">
<path id="Icon" d="M0 2.07885C0 2.65233 0.199444 3.1362 0.598328 3.53047L11.3501 14.2652C11.8396 14.767 12.3654 15 13 15C13.6346 15 14.1785 14.767 14.6499 14.2832L25.4017 3.53047C25.8006 3.1362 26 2.65233 26 2.07885C26 0.9319 25.0753 0 23.9149 0C23.3347 0 22.8089 0.232975 22.3738 0.645161L12.9819 10.0717L3.60809 0.645161C3.19107 0.232975 2.66527 0 2.08508 0C0.924686 0 0 0.9319 0 2.07885Z" fill="white"/>
</svg>
