<?xml version="1.0" encoding="UTF-8" standalone="no"?>
<!DOCTYPE svg PUBLIC "-//W3C//DTD SVG 1.1//EN" "http://www.w3.org/Graphics/SVG/1.1/DTD/svg11.dtd">
<svg width="100%" height="100%" viewBox="0 0 128 128" version="1.1" xmlns="http://www.w3.org/2000/svg" xmlns:xlink="http://www.w3.org/1999/xlink" xml:space="preserve" xmlns:serif="http://www.serif.com/" style="fill-rule:evenodd;clip-rule:evenodd;stroke-linejoin:round;stroke-miterlimit:2;">
    <g transform="matrix(2,0,0,2,0,0)">
        <g>
            <circle cx="39" cy="27.8" r="13.5" style="fill:rgb(91,249,173);fill-opacity:0.5;"/>
            <g>
                <path d="M19,28.8C18.5,28.8 18.1,28.5 18,28L14.6,11.5L8.2,11.5C7.6,11.5 7.2,11.1 7.2,10.5C7.2,9.9 7.6,9.5 8.2,9.5L15.5,9.5C16,9.5 16.4,9.8 16.5,10.3L20,27.6C20.1,28.1 19.8,28.7 19.2,28.8L19,28.8Z" style="fill:rgb(1,29,87);fill-rule:nonzero;stroke:rgb(1,29,87);stroke-width:1px;"/>
                <path d="M43.2,22.7L34.9,22.7C34.3,22.7 33.9,22.3 33.9,21.7C33.9,21.1 34.3,20.7 34.9,20.7L43.2,20.7C43.8,20.7 44.2,21.1 44.2,21.7C44.2,22.3 43.7,22.7 43.2,22.7Z" style="fill:rgb(1,29,87);fill-rule:nonzero;stroke:rgb(1,29,87);stroke-width:1px;"/>
                <path d="M21.6,54.5C14,54.5 7.7,48.3 7.7,40.7C7.7,33.1 13.9,26.8 21.6,26.8C29.3,26.8 35.4,33 35.4,40.6C35.4,48.3 29.2,54.5 21.6,54.5ZM21.6,28.8C15.1,28.8 9.7,34.1 9.7,40.7C9.7,47.3 15,52.5 21.6,52.5C28.2,52.5 33.5,47.2 33.5,40.7C33.4,34.1 28.1,28.8 21.6,28.8Z" style="fill:rgb(1,29,87);fill-rule:nonzero;stroke:rgb(1,29,87);stroke-width:1px;"/>
                <path d="M21.6,48C17.6,48 14.3,44.7 14.3,40.7C14.3,36.7 17.6,33.4 21.6,33.4C25.6,33.4 28.9,36.7 28.9,40.7C28.9,44.7 25.6,48 21.6,48ZM21.6,35.4C18.7,35.4 16.3,37.8 16.3,40.7C16.3,43.6 18.7,46 21.6,46C24.5,46 26.9,43.6 26.9,40.7C26.9,37.8 24.5,35.4 21.6,35.4C21.6,35.3 21.6,35.3 21.6,35.4Z" style="fill:rgb(1,29,87);fill-rule:nonzero;stroke:rgb(1,29,87);stroke-width:1px;"/>
                <path d="M50.6,53.7C47.2,53.7 44.4,50.9 44.4,47.5C44.4,44.1 47.2,41.3 50.6,41.3C54,41.3 56.8,44.1 56.8,47.5C56.8,50.9 54,53.7 50.6,53.7ZM50.6,43.3C48.3,43.3 46.4,45.2 46.4,47.5C46.4,49.8 48.3,51.7 50.6,51.7C52.9,51.7 54.8,49.8 54.8,47.5C54.8,45.2 52.9,43.3 50.6,43.3Z" style="fill:rgb(1,29,87);fill-rule:nonzero;stroke:rgb(1,29,87);stroke-width:1px;"/>
                <path d="M42.4,31.9C41.9,31.9 41.5,31.6 41.4,31.1C41.4,31 39.7,22.7 34.6,22.7L17.9,22.7C17.3,22.7 16.9,22.3 16.9,21.7C16.9,21.1 17.3,20.7 17.9,20.7L34.5,20.7C41.3,20.7 43.2,30.3 43.3,30.8C43.4,31.3 43,31.9 42.5,32L42.4,31.9Z" style="fill:rgb(1,29,87);fill-rule:nonzero;stroke:rgb(1,29,87);stroke-width:1px;"/>
                <path d="M55,45.8C54.4,45.8 54,45.4 54,44.8C54,44.4 54.2,44.1 54.5,43.9L58.7,41.4C59.2,41.1 59.8,41.3 60,41.8C60.2,42.3 60.1,42.8 59.7,43.1L55.5,45.6C55.3,45.7 55.2,45.7 55,45.8Z" style="fill:rgb(1,29,87);fill-rule:nonzero;stroke:rgb(1,29,87);stroke-width:1px;"/>
                <path d="M50.6,48.3C50.1,48.3 49.7,47.9 49.6,47.4L48.5,36.7L48.5,36.6C48.5,34.5 46.8,32.8 44.7,32.8L31.3,32.8C30.7,32.8 30.3,32.4 30.3,31.8C30.3,31.2 30.7,30.8 31.3,30.8L44.7,30.8C47.9,30.8 50.5,33.4 50.5,36.5L51.6,47.1C51.7,47.6 51.3,48.1 50.7,48.2L50.6,48.3Z" style="fill:rgb(1,29,87);fill-rule:nonzero;stroke:rgb(1,29,87);stroke-width:1px;"/>
                <path d="M20.8,42.3C20.2,42.3 19.8,41.9 19.8,41.3C19.8,41 20,40.7 20.2,40.5L21.8,39.3C22.2,39 22.9,39.1 23.2,39.5C23.5,39.9 23.4,40.6 23,40.9L21.4,42.1C21.2,42.2 21,42.3 20.8,42.3Z" style="fill:rgb(1,29,87);fill-rule:nonzero;stroke:rgb(1,29,87);stroke-width:1px;"/>
            </g>
        </g>
    </g>
</svg>
