<?xml version="1.0" encoding="UTF-8" standalone="no"?>
<!DOCTYPE svg PUBLIC "-//W3C//DTD SVG 1.1//EN" "http://www.w3.org/Graphics/SVG/1.1/DTD/svg11.dtd">
<svg width="100%" height="100%" viewBox="0 0 128 128" version="1.1" xmlns="http://www.w3.org/2000/svg" xmlns:xlink="http://www.w3.org/1999/xlink" xml:space="preserve" xmlns:serif="http://www.serif.com/" style="fill-rule:evenodd;clip-rule:evenodd;stroke-linecap:round;stroke-linejoin:round;">
    <g transform="matrix(2,0,0,2,0,0)">
        <circle cx="23" cy="27" r="13.49" style="fill:rgb(91,249,173);fill-opacity:0.5;"/>
        <g>
            <circle cx="8.48" cy="44.23" r="1.61" style="fill:none;stroke:rgb(1,29,87);stroke-width:2px;"/>
            <path d="M9.94,43.56C9.94,43.56 12.23,43.03 12.4,41.98C12.57,40.93 14.08,37.95 15.36,37.65C15.47,35.09 17.1,31.34 19.56,32C23.12,32.95 19.47,36.99 19.47,36.99" style="fill:none;fill-rule:nonzero;stroke:rgb(1,29,87);stroke-width:2px;"/>
            <path d="M8.48,45.84C8.48,45.84 13.36,49.39 19.87,47.22C21.43,50.06 20.98,53.48 20.44,53.96C20.03,54.33 18.35,54.91 17.6,55.97C17.27,56.43 17.63,57.07 18.19,57.07L22.42,57.07C22.89,57.07 23.32,56.83 23.55,56.42C24.01,55.6 24.66,53.97 24.66,51.32C24.66,51.32 27.87,51.08 34.34,52.49C41.26,54 53.7,51.46 53.7,51.46" style="fill:none;fill-rule:nonzero;stroke:rgb(1,29,87);stroke-width:2px;"/>
            <path d="M22.76,30.2C22.76,30.2 25.75,26.07 31.69,26.12C30.56,26.94 30.69,28.16 30.69,28.16C30.69,28.16 34.68,26.44 39.35,27.84C37.94,28.61 38.13,29.34 38.13,29.34C38.13,29.34 43.21,28.38 47.15,31.92C44.93,32.51 45.06,33.24 45.06,33.24C45.06,33.24 50.36,33.29 53.95,37.37" style="fill:none;fill-rule:nonzero;stroke:rgb(1,29,87);stroke-width:2px;"/>
            <path d="M52.46,39.58C52.46,39.58 56.31,40.99 57.13,43.8C56.45,43.57 55.45,44.03 55.45,44.03C55.45,44.03 56.99,46.71 56.99,49.2" style="fill:none;fill-rule:nonzero;stroke:rgb(1,29,87);stroke-width:2px;"/>
            <path d="M16.38,42.11L16.38,42.74" style="fill:none;fill-rule:nonzero;stroke:rgb(1,29,87);stroke-width:2px;"/>
            <path d="M42.38,52.9C42.38,52.9 42.09,55.02 40.77,55.39C38.91,55.91 39.13,57.09 39.13,57.09L44.4,57.09C44.75,57.09 45.06,56.9 45.23,56.6C45.63,55.85 46.31,54.31 46.31,52.59" style="fill:none;fill-rule:nonzero;stroke:rgb(1,29,87);stroke-width:2px;"/>
            <path d="M28.01,51.46C28.01,51.46 28.82,54.35 28.82,57.08" style="fill:none;fill-rule:nonzero;stroke:rgb(1,29,87);stroke-width:2px;"/>
            <path d="M6.87,57.08L57.01,57.08" style="fill:none;fill-rule:nonzero;stroke:rgb(1,29,87);stroke-width:2px;"/>
            <path d="M27.17,33.87C27.17,33.87 28.12,32.84 30.5,32.68" style="fill:none;fill-rule:nonzero;stroke:rgb(1,29,87);stroke-width:2px;"/>
            <path d="M34.28,35.06C34.28,35.06 35.23,34.03 37.61,33.87" style="fill:none;fill-rule:nonzero;stroke:rgb(1,29,87);stroke-width:2px;"/>
            <path d="M23.83,40.18C23.83,40.18 24.78,39.15 27.16,38.99" style="fill:none;fill-rule:nonzero;stroke:rgb(1,29,87);stroke-width:2px;"/>
            <path d="M30.44,41.82C30.44,41.82 31.15,40.61 33.44,39.94" style="fill:none;fill-rule:nonzero;stroke:rgb(1,29,87);stroke-width:2px;"/>
            <path d="M36.69,43.56C36.69,43.56 37.64,42.53 40.02,42.37" style="fill:none;fill-rule:nonzero;stroke:rgb(1,29,87);stroke-width:2px;"/>
            <path d="M42.76,47.31C42.76,47.31 43.97,46.6 46.3,47.14" style="fill:none;fill-rule:nonzero;stroke:rgb(1,29,87);stroke-width:2px;"/>
            <path d="M39.96,38.25C39.96,38.25 41.05,37.36 43.43,37.54" style="fill:none;fill-rule:nonzero;stroke:rgb(1,29,87);stroke-width:2px;"/>
            <path d="M44.53,42.1C44.53,42.1 45.78,41.45 48.07,42.1" style="fill:none;fill-rule:nonzero;stroke:rgb(1,29,87);stroke-width:2px;"/>
            <path d="M33.5,48.46C33.5,48.46 34.6,47.59 36.98,47.81" style="fill:none;fill-rule:nonzero;stroke:rgb(1,29,87);stroke-width:2px;"/>
            <path d="M26.27,46.53C26.27,46.53 27.37,45.66 29.75,45.88" style="fill:none;fill-rule:nonzero;stroke:rgb(1,29,87);stroke-width:2px;"/>
            <path d="M49.36,52.58C49.36,52.58 50.12,54.88 49.36,57.08" style="fill:none;fill-rule:nonzero;stroke:rgb(1,29,87);stroke-width:2px;"/>
        </g>
    </g>
</svg>
