<?xml version="1.0" encoding="UTF-8" standalone="no"?>
<!DOCTYPE svg PUBLIC "-//W3C//DTD SVG 1.1//EN" "http://www.w3.org/Graphics/SVG/1.1/DTD/svg11.dtd">
<svg width="100%" height="100%" viewBox="0 0 128 128" version="1.1" xmlns="http://www.w3.org/2000/svg" xmlns:xlink="http://www.w3.org/1999/xlink" xml:space="preserve" xmlns:serif="http://www.serif.com/" style="fill-rule:evenodd;clip-rule:evenodd;stroke-linecap:round;stroke-linejoin:round;">
    <g transform="matrix(2,0,0,2,0,0)">
        <g transform="matrix(1,0,0,1,-14.8859,-14.6463)">
            <circle cx="46.87" cy="45.55" r="13.5" style="fill:rgb(91,249,173);fill-opacity:0.5;"/>
        </g>
        <g>
            <path d="M32,56L22.07,50C16.372,46.56 12.881,40.366 12.89,33.71L12.89,16C17.279,16 20.89,12.389 20.89,8L43.1,8C43.1,12.389 46.711,16 51.1,16L51.1,33.72C51.107,40.371 47.622,46.559 41.93,50L32,56Z" style="fill:none;fill-rule:nonzero;stroke:rgb(1,29,87);stroke-width:2px;"/>
            <circle cx="32" cy="31" r="11.57" style="fill:none;stroke:rgb(1,29,87);stroke-width:2px;"/>
            <path d="M26.11,31.09L30.15,35.14L38.67,26.62" style="fill:none;fill-rule:nonzero;stroke:rgb(1,29,87);stroke-width:2px;"/>
        </g>
    </g>
</svg>
