<?xml version="1.0" encoding="UTF-8" standalone="no"?>
<!DOCTYPE svg PUBLIC "-//W3C//DTD SVG 1.1//EN" "http://www.w3.org/Graphics/SVG/1.1/DTD/svg11.dtd">
<svg width="100%" height="100%" viewBox="0 0 934 938" version="1.1" xmlns="http://www.w3.org/2000/svg" xmlns:xlink="http://www.w3.org/1999/xlink" xml:space="preserve" xmlns:serif="http://www.serif.com/" style="fill-rule:evenodd;clip-rule:evenodd;stroke-linejoin:round;stroke-miterlimit:2;">
    <g>
        <path d="M459.5,5.5C597.077,6.23 712.91,56.23 807,155.5C898.328,259.493 937.661,380.827 925,519.5C906.857,659.701 840.357,770.201 725.5,851C604.376,929.574 474.042,949.574 334.5,911C197.861,867.023 100.361,779.523 42,648.5C-6.667,528.167 -6.667,407.833 42,287.5C99.865,157.638 196.365,70.472 331.5,26C373.388,13.407 416.055,6.573 459.5,5.5ZM461.5,26.5C598.991,28.511 712.824,80.844 803,183.5C890.13,291.005 922.13,413.339 899,550.5C869.675,687.427 794.175,789.927 672.5,858C565.43,912.852 454.097,923.519 338.5,890C215.838,850.001 126.004,772.168 69,656.5C12.334,530.839 12.334,405.172 69,279.5C126.004,163.832 215.838,85.999 338.5,46C378.752,33.848 419.752,27.348 461.5,26.5Z" style="fill:rgb(0,26,80);fill-opacity:0.94;"/>
    </g>
    <g>
        <path d="M283.5,251.5C408.156,253.053 532.823,254.553 657.5,256C680.873,259.921 695.04,273.421 700,296.5C699.855,390.168 699.188,483.834 698,577.5C697.916,598.533 697.25,619.533 696,640.5C689.675,660.49 676.175,672.324 655.5,676C643.167,676.333 630.833,676.667 618.5,677C627.303,686.804 636.47,696.304 646,705.5C648.899,709.937 649.232,714.603 647,719.5C635.471,731.363 623.638,742.863 611.5,754C606.437,756.188 601.771,755.521 597.5,752C584.029,737.529 570.196,723.362 556,709.5C548.744,723.68 541.744,738.013 535,752.5C530.743,758.491 525.243,759.991 518.5,757C516.044,754.592 514.211,751.759 513,748.5C504.128,724.05 494.961,699.717 485.5,675.5C414.158,674.535 342.824,673.368 271.5,672C245.683,664.396 232.683,647.063 232.5,620C233.749,510.497 235.249,400.997 237,291.5C243.161,267.165 258.661,253.831 283.5,251.5ZM278.5,274.5C270,277.495 263.833,283.162 260,291.5C258.571,305.441 258.071,319.441 258.5,333.5C398.485,335.22 538.485,336.887 678.5,338.5C678.929,324.441 678.429,310.441 677,296.5C673.833,288 668,282.167 659.5,279C532.529,276.652 405.529,275.152 278.5,274.5ZM257.5,356.5C256.673,447.833 256.173,539.167 256,630.5C259.167,640.333 265.667,646.833 275.5,650C342.495,651.219 409.495,652.053 476.5,652.5C472.194,638.749 467.194,625.249 461.5,612C448.5,611.667 435.5,611.333 422.5,611C418.533,610.372 415.699,608.205 414,604.5C413.333,571.833 413.333,539.167 414,506.5C414.833,501 418,497.833 423.5,497C427.333,496.833 431.167,496.667 435,496.5C461.224,496.912 487.391,497.745 513.5,499C515.378,500.543 516.878,502.376 518,504.5C518.167,526.508 518.667,548.508 519.5,570.5C529.712,574.902 540.045,578.902 550.5,582.5C550.333,557.498 550.5,532.498 551,507.5C551.606,504.452 553.106,501.952 555.5,500C570.744,498.848 586.077,498.348 601.5,498.5C617.551,498.364 633.551,498.864 649.5,500C652,501.167 653.833,503 655,505.5C655.781,539.178 655.447,572.845 654,606.5C652.878,608.624 651.378,610.457 649.5,612C642.563,613.173 635.563,613.84 628.5,614C635.616,616.725 642.616,619.725 649.5,623C655.166,630.002 654.499,636.336 647.5,642C639.5,645.667 631.5,649.333 623.5,653C628.161,654.143 632.995,654.643 638,654.5C644.221,654.542 650.387,654.042 656.5,653C667.527,648.975 673.694,641.142 675,629.5C676.18,539.836 677.013,450.169 677.5,360.5C537.502,359.002 397.502,357.668 257.5,356.5ZM436.5,519.5C435.627,542.488 435.293,565.488 435.5,588.5C441.484,589.332 447.484,589.499 453.5,589C448.807,578.089 444.807,566.923 441.5,555.5C443.594,546.951 448.927,543.784 457.5,546C469.246,550.471 480.913,555.138 492.5,560C493.784,560.684 494.951,560.517 496,559.5C496.5,546.171 496.667,532.837 496.5,519.5L436.5,519.5ZM573.5,520.5C572.511,543.758 572.177,567.092 572.5,590.5L632.5,590.5C632.65,567.497 632.983,544.497 633.5,521.5C613.507,520.834 593.507,520.5 573.5,520.5ZM472.5,577.5C490.599,624.284 508.433,671.284 526,718.5C531.939,706.956 537.606,695.289 543,683.5C548.248,677.764 554.081,677.098 560.5,681.5C575.319,696.819 590.319,711.986 605.5,727C606.167,727.667 606.833,727.667 607.5,727C612.167,722.333 616.833,717.667 621.5,713C606.115,697.07 590.615,681.237 575,665.5C572.089,658.973 573.255,653.473 578.5,649C589.987,643.756 601.32,638.256 612.5,632.5C566.288,613.562 519.955,594.895 473.5,576.5C472.893,576.624 472.56,576.957 472.5,577.5Z" style="fill:rgb(0,26,80);fill-opacity:0.95;"/>
    </g>
    <g>
        <path d="M284.5,288.5C300.624,288.118 307.124,295.785 304,311.5C295.455,322.65 286.122,323.317 276,313.5C270.816,302.214 273.649,293.881 284.5,288.5Z" style="fill:rgb(0,26,80);fill-opacity:0.92;"/>
    </g>
    <g>
        <path d="M328.5,288.5C345.212,289.265 351.046,297.598 346,313.5C337.322,322.468 328.322,322.801 319,314.5C313.522,302.484 316.689,293.818 328.5,288.5Z" style="fill:rgb(0,26,80);fill-opacity:0.92;"/>
    </g>
    <g>
        <path d="M374.5,294.5C420.176,294.22 465.843,294.72 511.5,296C518.968,300.033 520.801,305.867 517,313.5C515.421,315.041 513.587,316.208 511.5,317C466.497,317.343 421.497,317.01 376.5,316C368.696,312.983 366.196,307.483 369,299.5C370.73,297.598 372.563,295.931 374.5,294.5Z" style="fill:rgb(0,26,80);fill-opacity:0.95;"/>
    </g>
    <g>
        <path d="M285.5,375.5C405.834,376.525 526.167,377.691 646.5,379C650.965,379.313 654.132,381.479 656,385.5C656.667,410.5 656.667,435.5 656,460.5C655.386,464.115 653.553,466.949 650.5,469C644.077,470.105 637.577,470.605 631,470.5C515.495,469.264 399.995,467.764 284.5,466C281.244,464.413 279.077,461.913 278,458.5C277.308,433.154 277.641,407.821 279,382.5C280.425,379.394 282.592,377.06 285.5,375.5ZM300.5,397.5C300.716,413.186 300.383,428.852 299.5,444.5C411.164,445.771 522.831,446.771 634.5,447.5L634.5,401.5C523.167,400.16 411.833,398.827 300.5,397.5Z" style="fill:rgb(0,26,80);fill-opacity:0.95;"/>
    </g>
    <g>
        <path d="M284.5,495.5C314.512,495.301 344.512,495.801 374.5,497C377.583,497.786 379.749,499.619 381,502.5C381.667,534.5 381.667,566.5 381,598.5C380.889,603.936 378.389,607.769 373.5,610C343.155,610.761 312.821,610.428 282.5,609C280,607.833 278.167,606 277,603.5C276.333,571.5 276.333,539.5 277,507.5C277.249,501.984 279.749,497.984 284.5,495.5ZM299.5,517.5C298.786,540.826 298.453,564.16 298.5,587.5C318.508,587.453 338.508,587.786 358.5,588.5C359.214,565.174 359.547,541.84 359.5,518.5C339.488,518.666 319.488,518.333 299.5,517.5Z" style="fill:rgb(0,26,80);fill-opacity:0.95;"/>
    </g>
</svg>
