<?xml version="1.0" encoding="UTF-8" standalone="no"?>
<!DOCTYPE svg PUBLIC "-//W3C//DTD SVG 1.1//EN" "http://www.w3.org/Graphics/SVG/1.1/DTD/svg11.dtd">
<svg width="100%" height="100%" viewBox="0 0 934 938" version="1.1" xmlns="http://www.w3.org/2000/svg" xmlns:xlink="http://www.w3.org/1999/xlink" xml:space="preserve" xmlns:serif="http://www.serif.com/" style="fill-rule:evenodd;clip-rule:evenodd;stroke-linejoin:round;stroke-miterlimit:2;">
    <g>
        <path d="M459.5,5.5C597.077,6.23 712.91,56.23 807,155.5C898.328,259.493 937.661,380.827 925,519.5C906.857,659.701 840.357,770.201 725.5,851C604.376,929.574 474.042,949.574 334.5,911C197.861,867.023 100.361,779.523 42,648.5C-6.667,528.167 -6.667,407.833 42,287.5C99.865,157.638 196.365,70.472 331.5,26C373.388,13.407 416.055,6.573 459.5,5.5ZM461.5,26.5C598.991,28.511 712.824,80.844 803,183.5C890.13,291.005 922.13,413.339 899,550.5C869.675,687.427 794.175,789.927 672.5,858C565.43,912.852 454.097,923.519 338.5,890C215.838,850.001 126.004,772.168 69,656.5C12.334,530.839 12.334,405.172 69,279.5C126.004,163.832 215.838,85.999 338.5,46C378.752,33.848 419.752,27.348 461.5,26.5Z" style="fill:rgb(0,26,80);fill-opacity:0.94;"/>
    </g>
    <g>
        <path d="M330.5,257.5C345.504,257.333 360.504,257.5 375.5,258C391.18,261.017 400.013,270.517 402,286.5C407.327,306.81 412.494,327.143 417.5,347.5C510.498,346.486 603.498,346.319 696.5,347C720.37,350.542 730.87,364.375 728,388.5C718.128,438.858 708.128,489.191 698,539.5C694.833,554.667 685.667,563.833 670.5,567C602.167,567.667 533.833,567.667 465.5,567C450.779,563.946 441.613,555.113 438,540.5C421.156,475.457 404.156,410.457 387,345.5C372.059,345.374 357.726,342.041 344,335.5C337.38,336.812 331.547,339.645 326.5,344C310.217,360.731 300.55,380.564 297.5,403.5C306.5,398 315.5,392.5 324.5,387C339.287,379.494 352.454,381.661 364,393.5C365.92,396.339 367.587,399.339 369,402.5C379.137,429.911 389.47,457.244 400,484.5C402.876,493.736 403.21,503.069 401,512.5C383.531,563.242 365.864,613.909 348,664.5C338.805,676.9 326.638,681.4 311.5,678C274.167,665.333 236.833,652.667 199.5,640C182.565,632.634 175.732,619.801 179,601.5C195.663,552.844 212.33,504.178 229,455.5C231.571,448.261 235.737,442.095 241.5,437C250.255,431.874 258.755,426.374 267,420.5C268.22,382.471 282.054,349.971 308.5,323C313.301,318.875 318.635,315.542 324.5,313C321.826,307.812 319.992,302.312 319,296.5C318.333,287.167 318.333,277.833 319,268.5C321.08,262.897 324.913,259.231 330.5,257.5ZM347.5,286.5C349.216,305.214 359.549,314.547 378.5,314.5C376.375,305.457 374.042,296.457 371.5,287.5C363.528,286.502 355.528,286.169 347.5,286.5ZM425.5,376.5C433.341,406.864 441.341,437.197 449.5,467.5C527.164,468.5 604.83,468.833 682.5,468.5C688.036,439.488 693.702,410.488 699.5,381.5C699.61,379.626 698.944,378.126 697.5,377C606.834,376.5 516.167,376.333 425.5,376.5ZM338.5,412.5C324.231,421.308 309.897,430.141 295.5,439C297.236,444.643 299.402,450.143 302,455.5C303.873,457.709 306.04,459.542 308.5,461C313.185,462.35 316.685,465.183 319,469.5C321.386,482.456 315.886,488.623 302.5,488C286.139,481.805 275.472,470.305 270.5,453.5C265.095,456.111 260.595,459.778 257,464.5C240.496,512.68 223.996,560.847 207.5,609C207.833,609.833 208.167,610.667 208.5,611.5C245.494,624.665 282.661,637.331 320,649.5C321.107,649.415 322.107,649.081 323,648.5C340.436,599.191 357.27,549.691 373.5,500C363.531,470.93 352.865,442.096 341.5,413.5C340.675,412.614 339.675,412.281 338.5,412.5ZM457.5,498.5C460.173,509.524 463.006,520.524 466,531.5C466.406,534.494 467.906,536.661 470.5,538C535.5,538.667 600.5,538.667 665.5,538C667.333,537.5 668.5,536.333 669,534.5C671.438,522.809 673.938,511.142 676.5,499.5C603.503,498.5 530.503,498.167 457.5,498.5Z" style="fill:rgb(0,26,80);fill-opacity:0.96;"/>
    </g>
    <g>
        <path d="M494.5,579.5C524.257,582.09 540.59,598.257 543.5,628C538.588,662.287 518.922,677.62 484.5,674C457.388,664.971 445.554,646.137 449,617.5C455.861,594.8 471.027,582.133 494.5,579.5ZM490.5,609.5C486.992,611.191 483.825,613.524 481,616.5C475.258,626.598 476.758,635.432 485.5,643C500.637,648.93 510.304,643.93 514.5,628C512.184,614.522 504.184,608.355 490.5,609.5Z" style="fill:rgb(0,26,80);fill-opacity:0.96;"/>
    </g>
    <g>
        <path d="M639.5,579.5C669.264,582.097 685.597,598.264 688.5,628C685.274,656.726 669.274,672.559 640.5,675.5C611.492,672.492 595.492,656.492 592.5,627.5C595.458,598.877 611.124,582.877 639.5,579.5ZM635.5,609.5C630.651,611.505 626.818,614.839 624,619.5C619.794,634.42 625.294,643.42 640.5,646.5C653.89,643.95 659.724,635.95 658,622.5C654.099,612.128 646.599,607.794 635.5,609.5Z" style="fill:rgb(0,26,80);fill-opacity:0.96;"/>
    </g>
</svg>
