<?xml version="1.0" encoding="UTF-8" standalone="no"?>
<!DOCTYPE svg PUBLIC "-//W3C//DTD SVG 1.1//EN" "http://www.w3.org/Graphics/SVG/1.1/DTD/svg11.dtd">
<svg width="100%" height="100%" viewBox="0 0 128 128" version="1.1" xmlns="http://www.w3.org/2000/svg" xmlns:xlink="http://www.w3.org/1999/xlink" xml:space="preserve" xmlns:serif="http://www.serif.com/" style="fill-rule:evenodd;clip-rule:evenodd;stroke-linecap:round;stroke-linejoin:round;">
    <g transform="matrix(2,0,0,2,0,0)">
        <circle cx="20.1" cy="19.9" r="13.5" style="fill:rgb(91,249,173);fill-opacity:0.5;"/>
        <g>
            <path d="M22.32,17.19C23.367,18.196 24.188,19.413 24.73,20.76C25.404,21.234 25.94,21.879 26.28,22.63C26.487,23.44 26.487,24.29 26.28,25.1C26.073,25.91 27.33,28.17 26.84,29.03C26.35,29.89 24.25,30.45 24.25,30.45C23.679,31.428 22.719,32.119 21.61,32.35C20.261,32.425 19.208,33.59 19.27,34.94C19.27,36.6 20.93,39.31 20.93,39.31C20.93,39.31 22.65,40.15 22.93,40.77C23.107,41.424 23.218,42.094 23.26,42.77C23.302,43.446 24.9,45.67 23.97,47.33C23.68,47.86 22.31,48.25 22.31,48.25L20.4,51.13" style="fill:none;fill-rule:nonzero;stroke:rgb(1,29,87);stroke-width:2px;"/>
            <g transform="matrix(1,0,0,1,-0.0533178,-0.191729)">
                <path d="M42.46,47.85C40.85,48.85 38.08,51.19 36.52,50.75C34.74,50.26 34.74,46.02 35.97,44.11C36.7,42.97 35.85,40.48 35.78,39.61C35.71,38.74 33.14,37.15 33.14,36.29C33.14,34.94 36.14,31.37 36.14,31.37C37.156,31.004 38.221,30.795 39.3,30.75C40.044,31.027 40.757,31.379 41.43,31.8C42.733,31.899 44.017,32.168 45.25,32.6L46.67,33.89C46.67,33.89 50.17,35.19 50.67,36.36C51.17,37.53 49.75,40.51 48.58,41.1C47.577,41.542 46.677,42.189 45.94,43" style="fill:none;fill-rule:nonzero;stroke:rgb(1,29,87);stroke-width:2px;"/>
            </g>
            <path d="M45,54C41.835,55.711 38.292,56.607 34.694,56.607C22.806,56.607 13.024,46.825 13.024,34.937C13.024,23.05 22.806,13.267 34.694,13.267C46.582,13.267 56.364,23.05 56.364,34.937C56.364,38.359 55.554,41.732 54,44.78" style="fill:none;fill-rule:nonzero;stroke:rgb(1,29,87);stroke-width:2px;"/>
            <path d="M51.83,21.63C49.972,22.412 48.047,23.028 46.08,23.47C44.113,23.912 43.41,26.47 41.66,26.2C39.91,25.93 38.12,24 38.12,24C38.12,24 38.24,20.36 37.69,20.18C37.14,20 35.69,20.98 34.74,20.24C33.79,19.5 34.34,17.42 34.34,17.42C34.34,17.42 32.34,16.8 32.09,16.12C31.84,15.44 32.82,13.93 33.01,13.35" style="fill:none;fill-rule:nonzero;stroke:rgb(1,29,87);stroke-width:2px;"/>
            <path d="M55,48.34C55,52.07 48.79,57.82 48.79,57.82C48.79,57.82 42.58,52.07 42.58,48.34C42.58,44.933 45.383,42.13 48.79,42.13C52.197,42.13 55,44.933 55,48.34Z" style="fill:none;fill-rule:nonzero;stroke:rgb(1,29,87);stroke-width:2px;"/>
            <path d="M44.67,58.4L52.92,58.4" style="fill:none;fill-rule:nonzero;stroke:rgb(1,29,87);stroke-width:2px;"/>
        </g>
    </g>
</svg>
