<?xml version="1.0" encoding="UTF-8" standalone="no"?>
<!DOCTYPE svg PUBLIC "-//W3C//DTD SVG 1.1//EN" "http://www.w3.org/Graphics/SVG/1.1/DTD/svg11.dtd">
<svg width="100%" height="100%" viewBox="0 0 934 938" version="1.1" xmlns="http://www.w3.org/2000/svg" xmlns:xlink="http://www.w3.org/1999/xlink" xml:space="preserve" xmlns:serif="http://www.serif.com/" style="fill-rule:evenodd;clip-rule:evenodd;stroke-linejoin:round;stroke-miterlimit:2;">
    <g>
        <path d="M459.5,5.5C597.077,6.23 712.91,56.23 807,155.5C898.328,259.493 937.661,380.827 925,519.5C906.857,659.701 840.357,770.201 725.5,851C604.376,929.574 474.042,949.574 334.5,911C197.861,867.023 100.361,779.523 42,648.5C-6.667,528.167 -6.667,407.833 42,287.5C99.865,157.638 196.365,70.472 331.5,26C373.388,13.407 416.055,6.573 459.5,5.5ZM461.5,26.5C598.991,28.511 712.824,80.844 803,183.5C890.13,291.005 922.13,413.339 899,550.5C869.675,687.427 794.175,789.927 672.5,858C565.43,912.852 454.097,923.519 338.5,890C215.838,850.001 126.004,772.168 69,656.5C12.334,530.839 12.334,405.172 69,279.5C126.004,163.832 215.838,85.999 338.5,46C378.752,33.848 419.752,27.348 461.5,26.5Z" style="fill:rgb(0,26,80);fill-opacity:0.94;"/>
    </g>
    <g>
        <path d="M252.5,232.5C395.167,232.333 537.834,232.5 680.5,233C701.27,235.636 714.104,247.136 719,267.5C719.667,372.833 719.667,478.167 719,583.5C714.473,601.36 703.307,612.527 685.5,617C627.501,617.5 569.501,617.667 511.5,617.5L511.5,684.5C527.503,684.333 543.503,684.5 559.5,685C573.059,688.896 580.393,697.896 581.5,712C580.292,726.539 572.625,735.539 558.5,739C497.5,739.667 436.5,739.667 375.5,739C359.061,734.894 351.561,724.394 353,707.5C355.142,695.71 361.975,688.21 373.5,685C389.497,684.5 405.497,684.333 421.5,684.5L421.5,617.5C363.499,617.667 305.499,617.5 247.5,617C227.569,611.325 216.403,598.158 214,577.5C213.333,476.167 213.333,374.833 214,273.5C216.762,250.241 229.596,236.574 252.5,232.5ZM250.5,253.5C242.414,256.423 237.247,262.09 235,270.5C234.5,356.166 234.333,441.833 234.5,527.5L699.5,527.5C699.667,442.166 699.5,356.833 699,271.5C696.596,262.763 691.096,256.929 682.5,254C538.5,253.5 394.5,253.333 250.5,253.5ZM234.5,548.5C234.064,560.243 234.564,571.91 236,583.5C239.413,590.582 244.913,595.082 252.5,597C395.5,597.667 538.5,597.667 681.5,597C689.502,594.997 695.002,590.164 698,582.5C699.409,571.23 699.909,559.896 699.5,548.5L234.5,548.5ZM442.5,617.5L442.5,684.5L491.5,684.5L491.5,617.5L442.5,617.5ZM379.5,704.5C377.333,705.198 375.5,706.531 374,708.5C372.046,714.547 374.213,718.047 380.5,719C438.167,719.667 495.833,719.667 553.5,719C555.421,718.64 557.088,717.806 558.5,716.5C561.849,711.106 560.516,707.273 554.5,705C496.168,704.5 437.834,704.333 379.5,704.5Z" style="fill:rgb(0,26,80);fill-opacity:0.94;"/>
    </g>
    <g>
        <path d="M388.5,319.5C400.142,320.116 403.642,325.782 399,336.5C380.986,354.347 363.153,372.347 345.5,390.5C363.848,409.014 382.015,427.681 400,446.5C402.824,455.192 399.657,460.192 390.5,461.5C386.411,460.587 382.911,458.587 380,455.5C361.362,435.862 342.362,416.528 323,397.5C319.667,392.833 319.667,388.167 323,383.5C344.424,361.574 366.257,340.241 388.5,319.5Z" style="fill:rgb(0,26,80);fill-opacity:0.93;"/>
    </g>
    <g>
        <path d="M493.5,319.5C505.27,319.694 509.104,325.361 505,336.5C485,376.5 465,416.5 445,456.5C439.035,463.065 433.035,463.065 427,456.5C425.203,453.135 425.203,449.802 427,446.5C446.728,406.043 466.728,365.71 487,325.5C488.494,322.686 490.66,320.686 493.5,319.5Z" style="fill:rgb(0,26,80);fill-opacity:0.92;"/>
    </g>
    <g>
        <path d="M539.5,319.5C543.131,319.16 546.464,319.994 549.5,322C569.667,342.167 589.833,362.333 610,382.5C611.766,384.881 612.932,387.548 613.5,390.5C612.932,393.452 611.766,396.119 610,398.5C589.833,418.667 569.667,438.833 549.5,459C537.643,464.133 532.143,460.3 533,447.5C533.667,446.167 534.333,444.833 535,443.5C552.681,425.986 570.181,408.319 587.5,390.5C569.152,371.986 550.985,353.319 533,334.5C530.865,327.45 533.032,322.45 539.5,319.5Z" style="fill:rgb(0,26,80);fill-opacity:0.91;"/>
    </g>
    <g>
        <path d="M461.5,559.5C475.104,557.938 481.27,563.938 480,577.5C475.078,586.762 467.911,588.929 458.5,584C453.444,579.359 451.944,573.859 454,567.5C455.69,563.979 458.19,561.312 461.5,559.5Z" style="fill:rgb(0,26,80);fill-opacity:0.92;"/>
    </g>
</svg>
