<?xml version="1.0" encoding="UTF-8" standalone="no"?>
<!DOCTYPE svg PUBLIC "-//W3C//DTD SVG 1.1//EN" "http://www.w3.org/Graphics/SVG/1.1/DTD/svg11.dtd">
<svg width="100%" height="100%" viewBox="0 0 128 128" version="1.1" xmlns="http://www.w3.org/2000/svg" xmlns:xlink="http://www.w3.org/1999/xlink" xml:space="preserve" xmlns:serif="http://www.serif.com/" style="fill-rule:evenodd;clip-rule:evenodd;stroke-linecap:round;stroke-linejoin:round;">
    <g transform="matrix(2,0,0,2,0,0)">
        <circle cx="46" cy="19.81" r="13.5" style="fill:rgb(91,249,173);fill-opacity:0.5;"/>
        <g>
            <path d="M13.18,12.94L50.82,12.94C52.499,12.94 53.88,14.321 53.88,16L53.88,45L10.12,45L10.12,16C10.12,14.321 11.501,12.94 13.18,12.94Z" style="fill:none;fill-rule:nonzero;stroke:rgb(1,29,87);stroke-width:2px;"/>
            <path d="M57.14,54.69L6.86,54.69C6.858,54.69 6.855,54.69 6.853,54.69C6.003,54.69 5.303,53.99 5.303,53.14C5.303,52.988 5.326,52.836 5.37,52.69L10.12,45L53.88,45L58.63,52.72C58.668,52.857 58.688,52.998 58.688,53.14C58.688,53.99 57.99,54.689 57.14,54.69Z" style="fill:none;fill-rule:nonzero;stroke:rgb(1,29,87);stroke-width:2px;"/>
            <path d="M37.37,30.66L48.27,30.66" style="fill:none;fill-rule:nonzero;stroke:rgb(1,29,87);stroke-width:2px;"/>
            <path d="M11.08,18.06L53.31,18.06" style="fill:none;fill-rule:nonzero;stroke:rgb(1,29,87);stroke-width:2px;"/>
            <path d="M14.03,49.47L50.42,49.47" style="fill:none;fill-rule:nonzero;stroke:rgb(1,29,87);stroke-width:2px;"/>
            <path d="M37.37,26.39L45.61,26.39" style="fill:none;fill-rule:nonzero;stroke:rgb(1,29,87);stroke-width:2px;"/>
            <path d="M37.37,22.13L47.37,22.13" style="fill:none;fill-rule:nonzero;stroke:rgb(1,29,87);stroke-width:2px;"/>
            <path d="M48.61,36.52C48.61,35.786 48.014,35.19 47.28,35.19L38.7,35.19C37.966,35.19 37.37,35.786 37.37,36.52L37.37,38.95C37.37,39.684 37.966,40.28 38.7,40.28L47.28,40.28C48.014,40.28 48.61,39.684 48.61,38.95L48.61,36.52Z" style="fill:none;stroke:rgb(1,29,87);stroke-width:2px;"/>
            <path d="M24.61,37.45C24.61,37.45 32.25,34.67 32.25,29.11C32.25,29.103 32.25,29.096 32.25,29.089C32.25,26.807 30.372,24.929 28.09,24.929C26.688,24.929 25.378,25.638 24.61,26.81C23.833,25.676 22.544,24.996 21.17,24.996C18.903,24.996 17.031,26.844 17,29.11C17,34.67 24.61,37.45 24.61,37.45Z" style="fill:none;fill-rule:nonzero;stroke:rgb(1,29,87);stroke-width:2px;"/>
        </g>
    </g>
</svg>
