<?xml version="1.0" encoding="UTF-8" standalone="no"?>
<!DOCTYPE svg PUBLIC "-//W3C//DTD SVG 1.1//EN" "http://www.w3.org/Graphics/SVG/1.1/DTD/svg11.dtd">
<svg width="100%" height="100%" viewBox="0 0 934 938" version="1.1" xmlns="http://www.w3.org/2000/svg" xmlns:xlink="http://www.w3.org/1999/xlink" xml:space="preserve" xmlns:serif="http://www.serif.com/" style="fill-rule:evenodd;clip-rule:evenodd;stroke-linejoin:round;stroke-miterlimit:2;">
    <g>
        <path d="M459.5,5.5C597.077,6.23 712.91,56.23 807,155.5C898.328,259.493 937.661,380.827 925,519.5C906.857,659.701 840.357,770.201 725.5,851C604.376,929.574 474.042,949.574 334.5,911C197.861,867.023 100.361,779.523 42,648.5C-6.667,528.167 -6.667,407.833 42,287.5C99.865,157.638 196.365,70.472 331.5,26C373.388,13.407 416.055,6.573 459.5,5.5ZM461.5,26.5C598.991,28.511 712.824,80.844 803,183.5C890.13,291.005 922.13,413.339 899,550.5C869.675,687.427 794.175,789.927 672.5,858C565.43,912.852 454.097,923.519 338.5,890C215.838,850.001 126.004,772.168 69,656.5C12.334,530.839 12.334,405.172 69,279.5C126.004,163.832 215.838,85.999 338.5,46C378.752,33.848 419.752,27.348 461.5,26.5Z" style="fill:rgb(0,26,80);fill-opacity:0.94;"/>
    </g>
    <g>
        <path d="M308.5,212.5C353.247,213.273 385.414,233.606 405,273.5C413.115,294.583 414.615,316.083 409.5,338C471.5,400 533.5,462 595.5,524C640.777,515.756 677.277,529.922 705,566.5C722.141,594.49 725.808,624.156 716,655.5C712.23,662.414 706.73,664.247 699.5,661C685.5,647 671.5,633 657.5,619C650.833,618.333 644.167,618.333 637.5,619C630.667,625.833 623.833,632.667 617,639.5C616.333,645.833 616.333,652.167 617,658.5C631.696,672.862 646.029,687.529 660,702.5C661.655,708.422 660.155,713.255 655.5,717C619.422,728.849 586.422,723.183 556.5,700C525.911,671.899 514.745,637.399 523,596.5C461,534.5 399,472.5 337,410.5C295.346,419.676 260.679,408.009 233,375.5C212.43,346.863 207.097,315.53 217,281.5C221.193,273.275 227.359,271.442 235.5,276C249.167,289.667 262.833,303.333 276.5,317C282.833,317.667 289.167,317.667 295.5,317C302.365,310.469 308.865,303.636 315,296.5C315.667,289.833 315.667,283.167 315,276.5C301.667,263.167 288.333,249.833 275,236.5C270.442,228.359 272.275,222.193 280.5,218C289.784,215.179 299.118,213.346 308.5,212.5ZM307.5,236.5C318.53,246.363 328.696,257.029 338,268.5C338.667,280.833 338.667,293.167 338,305.5C327.868,317.966 316.701,329.466 304.5,340C292.167,340.667 279.833,340.667 267.5,340C256.696,330.197 246.196,320.03 236,309.5C234.506,327.711 239.173,344.378 250,359.5C274.225,388.644 304.558,397.644 341,386.5C343.732,386.615 346.232,387.448 348.5,389C413.667,454.167 478.833,519.333 544,584.5C546.615,587.106 548.115,590.272 548.5,594C543.581,608.203 542.414,622.703 545,637.5C556.134,678.641 582.967,699.475 625.5,700C614.97,689.804 604.803,679.304 595,668.5C593,655.833 593,643.167 595,630.5C605.167,617.667 616.667,606.167 629.5,596C641.5,595.333 653.5,595.333 665.5,596C677.299,605.465 688.132,615.965 698,627.5C699.307,613.06 696.64,599.393 690,586.5C666.96,550.157 634.626,537.824 593,549.5C590.747,549.369 588.581,548.869 586.5,548C520.333,481.833 454.167,415.667 388,349.5C386.448,347.232 385.615,344.732 385.5,342C387.94,332.469 389.606,322.802 390.5,313C389.993,302.798 387.826,292.965 384,283.5C368.608,251.067 343.108,235.401 307.5,236.5Z" style="fill:rgb(0,26,80);fill-opacity:0.94;"/>
    </g>
</svg>
