<?xml version="1.0" encoding="UTF-8"?>
<!DOCTYPE svg PUBLIC "-//W3C//DTD SVG 1.1//EN" "http://www.w3.org/Graphics/SVG/1.1/DTD/svg11.dtd">
<svg xmlns="http://www.w3.org/2000/svg" version="1.1" width="128px" height="128px" style="shape-rendering:geometricPrecision; text-rendering:geometricPrecision; image-rendering:optimizeQuality; fill-rule:evenodd; clip-rule:evenodd" xmlns:xlink="http://www.w3.org/1999/xlink">
<g><path style="opacity:0.97" fill="#fefffe" d="M 51.5,-0.5 C 59.5,-0.5 67.5,-0.5 75.5,-0.5C 103.167,6.5 120.5,23.8333 127.5,51.5C 127.5,59.5 127.5,67.5 127.5,75.5C 120.385,103.615 102.718,120.949 74.5,127.5C 74.1667,127.5 73.8333,127.5 73.5,127.5C 73.5,112.167 73.5,96.8333 73.5,81.5C 78.5,81.5 83.5,81.5 88.5,81.5C 88.9488,75.4742 89.6155,69.4742 90.5,63.5C 84.8333,63.5 79.1667,63.5 73.5,63.5C 73.0845,57.0478 73.5845,50.7145 75,44.5C 75.9025,43.2986 77.0692,42.4652 78.5,42C 82.8206,41.501 87.1539,41.3343 91.5,41.5C 92.0807,36.0248 91.4141,30.8582 89.5,26C 80.5834,23.89 71.9167,24.89 63.5,29C 59.0721,32.0925 56.2388,36.2591 55,41.5C 53.8839,48.7925 53.3839,56.1258 53.5,63.5C 48.1667,63.5 42.8333,63.5 37.5,63.5C 37.5,69.5 37.5,75.5 37.5,81.5C 42.8333,81.5 48.1667,81.5 53.5,81.5C 53.5,96.8333 53.5,112.167 53.5,127.5C 53.1667,127.5 52.8333,127.5 52.5,127.5C 24.2818,120.949 6.61511,103.615 -0.5,75.5C -0.5,67.5 -0.5,59.5 -0.5,51.5C 6.5266,23.8067 23.8599,6.47339 51.5,-0.5 Z"/></g>
</svg>
