<?xml version="1.0" encoding="UTF-8" standalone="no"?>
<!DOCTYPE svg PUBLIC "-//W3C//DTD SVG 1.1//EN" "http://www.w3.org/Graphics/SVG/1.1/DTD/svg11.dtd">
<svg width="100%" height="100%" viewBox="0 0 128 128" version="1.1" xmlns="http://www.w3.org/2000/svg" xmlns:xlink="http://www.w3.org/1999/xlink" xml:space="preserve" xmlns:serif="http://www.serif.com/" style="fill-rule:evenodd;clip-rule:evenodd;stroke-linejoin:round;stroke-miterlimit:2;">
    <g>
        <path d="M51.5,-0.5L75.5,-0.5C103.167,6.5 120.5,23.833 127.5,51.5L127.5,75.5C120.385,103.615 102.718,120.949 74.5,127.5L52.5,127.5C24.282,120.949 6.615,103.615 -0.5,75.5L-0.5,51.5C6.5,23.833 23.833,6.5 51.5,-0.5ZM56.5,23.5C67.572,23.56 78.572,24.394 89.5,26C94.667,28.5 98.5,32.333 101,37.5C102.605,53.446 102.938,69.446 102,85.5C100.432,92.737 96.266,97.904 89.5,101C73.563,103.804 57.563,104.138 41.5,102C32.676,99.842 27.176,94.342 25,85.5C23.394,69.518 23.728,53.518 26,37.5C28.5,32.333 32.333,28.5 37.5,26C43.953,25.012 50.286,24.179 56.5,23.5Z" style="fill:rgb(254,255,254);fill-opacity:0.94;"/>
    </g>
    <g>
        <path d="M42.5,30.5C56.504,30.333 70.504,30.5 84.5,31C91,32.167 94.833,36 96,42.5C96.667,56.5 96.667,70.5 96,84.5C94.833,91 91,94.833 84.5,96C70.5,96.667 56.5,96.667 42.5,96C36,94.833 32.167,91 31,84.5C30.333,70.5 30.333,56.5 31,42.5C32.348,35.988 36.181,31.988 42.5,30.5ZM84.5,37.5C79.08,40.756 79.247,43.756 85,46.5C90.954,43.257 90.787,40.257 84.5,37.5ZM59.5,43.5C57.723,44.6 55.723,45.434 53.5,46C40.618,57.026 40.285,68.36 52.5,80C67.062,86.467 77.228,82.301 83,67.5C83.813,51.145 75.979,43.145 59.5,43.5Z" style="fill:rgb(254,255,254);fill-opacity:0.93;"/>
    </g>
    <g>
        <path d="M60.5,49.5C75.131,50.436 79.965,57.77 75,71.5C67.333,79.5 59.667,79.5 52,71.5C47.48,61.216 50.313,53.883 60.5,49.5Z" style="fill:rgb(254,255,254);fill-opacity:0.91;"/>
    </g>
</svg>
