<?xml version="1.0" encoding="UTF-8"?>
<!DOCTYPE svg PUBLIC "-//W3C//DTD SVG 1.1//EN" "http://www.w3.org/Graphics/SVG/1.1/DTD/svg11.dtd">
<svg xmlns="http://www.w3.org/2000/svg" version="1.1" width="128px" height="128px" style="shape-rendering:geometricPrecision; text-rendering:geometricPrecision; image-rendering:optimizeQuality; fill-rule:evenodd; clip-rule:evenodd" xmlns:xlink="http://www.w3.org/1999/xlink">
<g><path style="opacity:0.952" fill="#fefffe" d="M 51.5,-0.5 C 59.5,-0.5 67.5,-0.5 75.5,-0.5C 103.167,6.5 120.5,23.8333 127.5,51.5C 127.5,59.5 127.5,67.5 127.5,75.5C 120.385,103.615 102.718,120.949 74.5,127.5C 67.1667,127.5 59.8333,127.5 52.5,127.5C 24.2818,120.949 6.61511,103.615 -0.5,75.5C -0.5,67.5 -0.5,59.5 -0.5,51.5C 6.5,23.8333 23.8333,6.5 51.5,-0.5 Z M 33.5,25.5 C 43.2128,26.7687 45.8794,31.602 41.5,40C 34.0147,44.0625 29.0147,42.0625 26.5,34C 27.2559,29.7541 29.5892,26.9207 33.5,25.5 Z M 81.5,48.5 C 92.2618,48.2844 99.0951,53.2844 102,63.5C 102.5,75.4954 102.667,87.4954 102.5,99.5C 97.5,99.5 92.5,99.5 87.5,99.5C 87.6665,89.1613 87.4998,78.828 87,68.5C 84.8858,61.5057 80.3858,59.3391 73.5,62C 71.1898,63.6374 69.6898,65.804 69,68.5C 68.5002,78.828 68.3335,89.1613 68.5,99.5C 63.5,99.5 58.5,99.5 53.5,99.5C 53.5,82.8333 53.5,66.1667 53.5,49.5C 58.5,49.5 63.5,49.5 68.5,49.5C 68.1924,51.924 68.5258,54.2573 69.5,56.5C 72.7754,52.5251 76.7754,49.8584 81.5,48.5 Z M 27.5,49.5 C 32.5,49.5 37.5,49.5 42.5,49.5C 42.5,66.1667 42.5,82.8333 42.5,99.5C 37.5,99.5 32.5,99.5 27.5,99.5C 27.5,82.8333 27.5,66.1667 27.5,49.5 Z"/></g>
</svg>
